# xmcd CD database file
#
# Track frame offsets:
#	150
#	27300
#	51075
#	70725
#	89850
#	112275
#	133950
#	156225
#	180675
#	205500
#
# Disc length: 3133 seconds
#
# Revision: 1
# Processed by: cddbd v1.5.1PL2 Copyright (c) Steve Scherf et al.
# Submitted via: freeDBTagger 0.8.2.1
#
DISCID=950c3b0a
DTITLE=RAMJA - 愛の生活
DYEAR=2005
DGENRE=misc
TTITLE0=過去(Full Length Version)
TTITLE1=愛の性活
TTITLE2=疑惑
TTITLE3=営むということ
TTITLE4=追憶
TTITLE5=夢の国
TTITLE6=分身
TTITLE7=光り
TTITLE8=月と遊泳
TTITLE9=すてきな日曜日
EXTD=
EXTT0=
EXTT1=
EXTT2=
EXTT3=
EXTT4=
EXTT5=
EXTT6=
EXTT7=
EXTT8=
EXTT9=
PLAYORDER=
